<svg xmlns="http://www.w3.org/2000/svg" width="272.439" height="273.007" viewBox="0 0 272.439 273.007"><path id="Path_294" fill="none" stroke="rgba(21,20,19,0.04)" stroke-linecap="round" stroke-linejoin="bevel" stroke-width="1" d="M239.735,371.362l.01,136.357,18.577-135.086L239.764,507.722l36.8-131.3-36.779,131.3,54.334-125.064L239.8,507.735l70.857-116.5-70.84,116.511L325.88,401.978l-86.045,105.78L339.5,414.695l-99.648,93.078,111.405-78.626L239.86,507.789l121.074-62.724L239.869,507.807l128.487-45.654-128.48,45.673,133.507-27.733-133.5,27.753,136.04-9.3-136.038,9.315,136.038,9.315-136.04-9.3,133.5,27.752L239.876,507.9l128.48,45.672L239.869,507.924l121.065,62.742L239.86,507.942l111.394,78.643L239.848,507.958,339.5,601.036l-99.661-93.063,86.045,105.78L239.819,507.985,310.659,624.5,239.8,508l54.316,125.072L239.784,508l36.779,131.3-36.8-131.3L258.322,643.1,239.745,508.012l-.01,136.357-.01-136.357L221.147,643.1,239.7,508.009l-36.8,131.3L239.685,508,185.351,633.068,239.667,508,168.81,624.5l70.84-116.511L153.589,613.752l86.045-105.78-99.661,93.063,99.648-93.078L128.215,586.584l111.394-78.643L118.535,570.666,239.6,507.924,111.113,553.577,239.593,507.9,106.086,535.638l133.5-27.752-136.04,9.3,136.038-9.315L103.549,498.55l136.04,9.3-133.5-27.753,133.507,27.733-128.48-45.673L239.6,507.807,118.535,445.065l121.074,62.724L128.215,429.147l111.405,78.626-99.648-93.078,99.661,93.063-86.045-105.78L239.65,507.745,168.81,391.234l70.857,116.5L185.351,382.663l54.334,125.064-36.779-131.3,36.8,131.3L221.147,372.633l18.577,135.086Z" data-name="Path 294" transform="translate(-103.515 -371.362)"/></svg>