<svg xmlns="http://www.w3.org/2000/svg" width="178.818" height="178.818" viewBox="0 0 178.818 178.818"><g id="footer-txt-work" transform="translate(-1339.14 -248.456)"><path id="circle" fill="none" stroke="#f2f2f2" stroke-width="3" d="M1428.549,249.956a87.909,87.909,0,1,1-87.909,87.909h0A87.909,87.909,0,0,1,1428.549,249.956Z"/><g id="footer-lets-work-txt"><g id="Group_325" data-name="Group 325"><path id="Path_295" fill="none" d="M1389.611,378.127l-.02-.185a6.576,6.576,0,0,0-.186-.708,5.232,5.232,0,0,0-1.121-1.836,6.339,6.339,0,0,0-2.176-1.495,10.161,10.161,0,0,0-6.661-.341c-4.815,1.291-8.114,5.186-7.518,8.853l.029.177v.051l.016.018a.524.524,0,0,0,.014.088l.147.558a5.17,5.17,0,0,0,1.12,1.836,6.557,6.557,0,0,0,2.177,1.494,10.18,10.18,0,0,0,6.679.325C1386.835,385.72,1390.2,381.75,1389.611,378.127Z" data-name="Path 295"/><path id="Path_296" fill="none" d="M1465.745,379.9h-.186a6.789,6.789,0,0,0-.726.091,5.259,5.259,0,0,0-1.967.87,6.353,6.353,0,0,0-1.768,1.96,10.164,10.164,0,0,0-1.215,6.558c.647,4.936,4.073,8.718,7.787,8.611h0l.179-.006.05.009.02-.014a.668.668,0,0,0,.089,0l.573-.072a5.183,5.183,0,0,0,1.966-.869,6.562,6.562,0,0,0,1.768-1.96,10.182,10.182,0,0,0,1.2-6.578C1472.906,383.654,1469.415,379.8,1465.745,379.9Z" data-name="Path 296"/><path id="Path_297" fill="none" d="M1406.712,266.055a4.337,4.337,0,0,0-4.632-.765l-5.187,2.03,3.238,8.274,2.334-.926,1.929-.756a5.6,5.6,0,0,0,1.788-1.184C1408.166,270.773,1408.414,267.8,1406.712,266.055Z" data-name="Path 297"/><path id="Path_298" fill="none" d="M1447.081,399.173a5.552,5.552,0,0,0-1.892,1.009c-2.16,1.757-2.69,4.7-1.161,6.591a4.337,4.337,0,0,0,4.538,1.2l5.355-1.529-2.438-8.543-2.41.7Z" data-name="Path 298"/><path id="Path_299" fill="#f2f2f2" d="M1464.754,291.832l-9.743-6.072,10.406-16.694-1.686-1.051-10.857,17.417,11.429,7.124Z" data-name="Path 299"/><path id="Path_300" fill="#f2f2f2" d="M1476.052,304.419l-8.4-9.528,6.757-5.955,7.592,8.613.64-.564-7.591-8.613,6.8-6,8.4,9.532.576-.508-9.71-11.018-15.352,13.531,9.711,11.017Z" data-name="Path 300"/><path id="Path_301" fill="#f2f2f2" d="M1478.775,312.027l.819,1.823,17.944-8.059,2.881,6.415.779-.35-6.617-14.73-.778.349,2.916,6.493Z" data-name="Path 301"/><path id="Path_302" fill="#f2f2f2" d="M1495.865,319.1l-.448.1a3.568,3.568,0,0,0,3.926,1.683c.93-.21,1.714-.9,1.513-1.792-.005-.026-.011-.052-.017-.077a1.218,1.218,0,1,0-2.358.613,1,1,0,0,0,.346.573A2.586,2.586,0,0,1,1495.865,319.1Z" data-name="Path 302"/><path id="Path_303" fill="#f2f2f2" d="M1502.768,328.469a5.338,5.338,0,0,0-3.762-1.358c-2.83.125-4.059,2.83-5.372,6.369a3.8,3.8,0,0,1-.142.4c-.036.087-.071.175-.107.275-1.674,4.158-2.916,5.51-5.1,5.6-2.147.091-3.29-1.331-3.43-4.209v-.2c-.08-4.137,3.381-5.666,4.7-6.2l-.045-2.458c-2.767.833-5.6,3.469-5.508,8.446l.007.372c.291,6.169,4.7,6.3,5.591,6.269,3.109-.135,4.35-3.574,5.544-6.909.13-.35.247-.687.378-1.025l.011-.05.012-.012c1.411-3.4,2.765-4.758,4.8-4.795,1.7-.031,3.124,1.756,3.165,3.991a6.5,6.5,0,0,1-4.984,6.587l.041,2.259c1.4-.3,6.051-1.813,5.926-8.664A6.38,6.38,0,0,0,1502.768,328.469Z" data-name="Path 303"/><path id="Path_304" fill="#f2f2f2" d="M1478.178,360.613l12.879,12.729-17.2-5.606-1.266,2.085,13.9,16.594,1.465-2.431-14.286-14.655,19.287,6.419,1.035-1.7-14.663-14.034,19.664,5.8,1.554-2.559-21.132-4.679Z" data-name="Path 304"/><path id="Path_305" fill="#f2f2f2" d="M1466.372,378.984a2.113,2.113,0,0,0-.62-.014,3.1,3.1,0,0,0-.519.02,4.825,4.825,0,0,0-.644.079,8.69,8.69,0,0,0-3.82,1.536c-4.269,3.043-5.062,9.252-1.79,13.843a10.426,10.426,0,0,0,8.89,4.467h.044a.215.215,0,0,0,.062,0l.01-.008h.064a8.9,8.9,0,0,0,4.607-1.625c4.259-3.035,5.052-9.246,1.773-13.846A10.42,10.42,0,0,0,1466.372,378.984Zm5.943,16.094a6.562,6.562,0,0,1-1.768,1.96,5.183,5.183,0,0,1-1.966.869l-.573.072a.668.668,0,0,1-.089,0l-.02.014-.05-.009-.179.006h0c-3.714.107-7.14-3.675-7.787-8.611a10.164,10.164,0,0,1,1.215-6.558,6.353,6.353,0,0,1,1.768-1.96,5.259,5.259,0,0,1,1.967-.87,6.789,6.789,0,0,1,.726-.091h.186c3.67-.1,7.161,3.753,7.77,8.6A10.182,10.182,0,0,1,1472.315,395.078Z" data-name="Path 305"/><path id="Path_306" fill="#f2f2f2" d="M1448.5,387.46l2.8,9.8c-4.521,1.3-9.6,2.6-12.332-6.975l-.027-.094-2.262.645.014.047c1.461,5.119,4.293,8.026,8.883,8.111-3.409,1.2-5.345,4.276-4.629,6.784.953,3.34,5.253,3.609,8.953,2.552l4.81-1.377,1.453-.414-5.612-19.665Zm5.421,18.985-5.355,1.529a4.337,4.337,0,0,1-4.538-1.2c-1.529-1.891-1-4.834,1.161-6.591a5.552,5.552,0,0,1,1.892-1.009l1.992-.571,2.41-.7Z" data-name="Path 306"/><path id="Path_307" fill="#f2f2f2" d="M1431.747,393.573a10.065,10.065,0,0,1-3.213,6.961l-7.514-9.953-3.523-.146,9.566,11.44-6.936,6.737a4.655,4.655,0,0,1-3.447,1.534l-.033.792,4.555.188.033-.792-1.231-.051,11.512-11.22L1431,411.53l1.985.081.845-20.5-1.985-.082Z" data-name="Path 307"/><path id="Path_308" fill="#f2f2f2" d="M1400.247,382.99l-9.81,17.048-6.1-3.507-.425.739,14,8.058.425-.74-6.169-3.549,9.81-17.049Z" data-name="Path 308"/><path id="Path_309" fill="#f2f2f2" d="M1390.6,378.625a2.128,2.128,0,0,0-.067-.616,3.27,3.27,0,0,0-.088-.512,5.146,5.146,0,0,0-.163-.628,8.7,8.7,0,0,0-2.026-3.585c-3.578-3.831-9.838-3.8-13.959.049a10.424,10.424,0,0,0-3.256,9.4v.017l.007.026a.17.17,0,0,0,.006.063l.009.009.006.062a8.879,8.879,0,0,0,2.218,4.354c3.57,3.823,9.83,3.791,13.96-.066A10.423,10.423,0,0,0,1390.6,378.625Zm-15.168,8.012a6.557,6.557,0,0,1-2.177-1.494,5.17,5.17,0,0,1-1.12-1.836l-.147-.558a.524.524,0,0,1-.014-.088l-.016-.018v-.051l-.029-.177c-.6-3.667,2.7-7.562,7.518-8.853a10.161,10.161,0,0,1,6.661.341,6.339,6.339,0,0,1,2.176,1.495,5.232,5.232,0,0,1,1.121,1.836,6.576,6.576,0,0,1,.186.708l.02.185c.586,3.623-2.776,7.593-7.5,8.835A10.18,10.18,0,0,1,1375.432,386.637Z" data-name="Path 309"/><path id="Path_310" fill="#f2f2f2" d="M1377.629,362.012a2.485,2.485,0,0,0,.14-.6,1.326,1.326,0,0,0,.084-.376l.027-.129c.033-.211.056-.445.067-.645a8.63,8.63,0,0,0-.589-4.049,9.679,9.679,0,0,0-10.926-5.513l3.259,8.042.685-.268-2.17-5.354c.306.008.627.022.876.053a10.43,10.43,0,0,1,6.256,2.75,6.5,6.5,0,0,1,1.531,2.22,5.121,5.121,0,0,1,.388,2.156,3.365,3.365,0,0,1-.08.743c-.016.057-.02.113-.029.156-.8,3.771-5.409,6.282-10.467,5.742a10.338,10.338,0,0,1-6.28-2.741,6.562,6.562,0,0,1-1.531-2.221,5.133,5.133,0,0,1-.388-2.156l.052-.587c0-.027.018-.069.018-.086v-.055a.438.438,0,0,0,.035-.172,7.363,7.363,0,0,1,4.89-5.033l-.689-1.8a10.332,10.332,0,0,0-4.866,6.812v.039l-.03.025.005.077-.025.036a8.84,8.84,0,0,0,.511,4.83c1.95,4.812,7.785,7.009,13.026,4.885A10.519,10.519,0,0,0,1377.629,362.012Z" data-name="Path 310"/><path id="Path_311" fill="#f2f2f2" d="M1373.031,330.4l-.767.038.629,12.684-8.995.446-.569-11.466-.853.042.569,11.466-9.056.45-.625-12.685-.767.039.728,14.667,20.434-1.014Z" data-name="Path 311"/><path id="Path_312" fill="#f2f2f2" d="M1355.793,317.925l19.064,4.858.493-1.937-19.065-4.853,1.735-6.815-.827-.211-3.984,15.647.827.211Z" data-name="Path 312"/><path id="Path_313" fill="#f2f2f2" d="M1378.925,310.7l-8.292-5.29,6.2-9.71,8.291,5.29,1.069-1.675-17.3-11.04-1.07,1.672,8.292,5.291-6.194,9.712-8.291-5.289-1.069,1.674,17.3,11.039Z" data-name="Path 313"/><path id="Path_314" fill="#f2f2f2" d="M1400.011,287.549l-.484-.6-9.861,8-5.676-6.993,8.914-7.235-.537-.663-8.914,7.235-5.714-7.04,9.855-7.992-.483-.6-11.4,9.255,12.9,15.888Z" data-name="Path 314"/><path id="Path_315" fill="#f2f2f2" d="M1405.913,273.946c3.279-1.519,4.915-4.764,3.965-7.193-1.266-3.235-5.57-3.091-9.156-1.691l-4.665,1.825-1.408.551,7.453,19.046,1.987-.777-3.714-9.489c4.377-1.726,9.311-3.5,12.94,5.774l.035.09,2.191-.857-.018-.045C1413.582,276.22,1410.487,273.6,1405.913,273.946Zm-1.519-.034-1.929.756-2.334.926-3.238-8.274,5.187-2.03a4.337,4.337,0,0,1,4.632.765c1.7,1.742,1.454,4.718-.53,6.673A5.6,5.6,0,0,1,1404.394,273.912Z" data-name="Path 315"/></g><circle id="Ellipse_25" cx="4.065" cy="4.065" r="4.065" fill="#f2f2f2" data-name="Ellipse 25" transform="translate(1429.779 264.88)"/></g></g></svg>