<svg xmlns="http://www.w3.org/2000/svg" width="325" height="650" viewBox="0 0 325 650"><g id="Group_322" data-name="Group 322" transform="translate(-798 -230)"><g id="Group_1" data-name="Group 1"><g id="Ellipse_2" fill="none" stroke="rgba(25,24,23,0.12)" stroke-width=".5" data-name="Ellipse 2" transform="translate(930 555)"><circle cx="30" cy="30" r="30" stroke="none"/><circle cx="30" cy="30" r="29.75" fill="none"/></g><g id="Ellipse_8" fill="none" stroke="rgba(25,24,23,0.12)" stroke-width=".5" data-name="Ellipse 8" transform="translate(798 555)"><circle cx="162.5" cy="162.5" r="162.5" stroke="none"/><circle cx="162.5" cy="162.5" r="162.25" fill="none"/></g><g id="Ellipse_7" fill="none" stroke="rgba(25,24,23,0.12)" stroke-width=".5" data-name="Ellipse 7" transform="translate(806 555)"><circle cx="154" cy="154" r="154" stroke="none"/><circle cx="154" cy="154" r="153.75" fill="none"/></g><g id="Ellipse_6" fill="none" stroke="rgba(25,24,23,0.12)" stroke-width=".5" data-name="Ellipse 6" transform="translate(837 555)"><circle cx="123.5" cy="123.5" r="123.5" stroke="none"/><circle cx="123.5" cy="123.5" r="123.25" fill="none"/></g><g id="Ellipse_5" fill="none" stroke="rgba(25,24,23,0.12)" stroke-width=".5" data-name="Ellipse 5" transform="translate(860 555)"><circle cx="100.5" cy="100.5" r="100.5" stroke="none"/><circle cx="100.5" cy="100.5" r="100.25" fill="none"/></g><g id="Ellipse_4" fill="none" stroke="rgba(25,24,23,0.12)" stroke-width=".5" data-name="Ellipse 4" transform="translate(887 555)"><circle cx="73.5" cy="73.5" r="73.5" stroke="none"/><circle cx="73.5" cy="73.5" r="73.25" fill="none"/></g><g id="Ellipse_3" fill="none" stroke="rgba(25,24,23,0.12)" stroke-width=".5" data-name="Ellipse 3" transform="translate(918 555)"><circle cx="42" cy="42" r="42" stroke="none"/><circle cx="42" cy="42" r="41.75" fill="none"/></g></g><g id="Group_2" data-name="Group 2" transform="translate(798 230)"><g id="Ellipse_2-2" fill="none" stroke="rgba(25,24,23,0.12)" stroke-width=".5" data-name="Ellipse 2" transform="translate(132 265)"><circle cx="30" cy="30" r="30" stroke="none"/><circle cx="30" cy="30" r="29.75" fill="none"/></g><g id="Ellipse_8-2" fill="none" stroke="rgba(25,24,23,0.12)" stroke-width=".5" data-name="Ellipse 8"><circle cx="162.5" cy="162.5" r="162.5" stroke="none"/><circle cx="162.5" cy="162.5" r="162.25" fill="none"/></g><g id="Ellipse_7-2" fill="none" stroke="rgba(25,24,23,0.12)" stroke-width=".5" data-name="Ellipse 7" transform="translate(8 17)"><circle cx="154" cy="154" r="154" stroke="none"/><circle cx="154" cy="154" r="153.75" fill="none"/></g><g id="Ellipse_6-2" fill="none" stroke="rgba(25,24,23,0.12)" stroke-width=".5" data-name="Ellipse 6" transform="translate(39 78)"><circle cx="123.5" cy="123.5" r="123.5" stroke="none"/><circle cx="123.5" cy="123.5" r="123.25" fill="none"/></g><g id="Ellipse_5-2" fill="none" stroke="rgba(25,24,23,0.12)" stroke-width=".5" data-name="Ellipse 5" transform="translate(62 124)"><circle cx="100.5" cy="100.5" r="100.5" stroke="none"/><circle cx="100.5" cy="100.5" r="100.25" fill="none"/></g><g id="Ellipse_4-2" fill="none" stroke="rgba(25,24,23,0.12)" stroke-width=".5" data-name="Ellipse 4" transform="translate(89 178)"><circle cx="73.5" cy="73.5" r="73.5" stroke="none"/><circle cx="73.5" cy="73.5" r="73.25" fill="none"/></g><g id="Ellipse_3-2" fill="none" stroke="rgba(25,24,23,0.12)" stroke-width=".5" data-name="Ellipse 3" transform="translate(120 241)"><circle cx="42" cy="42" r="42" stroke="none"/><circle cx="42" cy="42" r="41.75" fill="none"/></g></g></g></svg>